<svg xmlns="http://www.w3.org/2000/svg" viewBox="0 0 149.96 153.33"><defs><style>.cls-1,.cls-2{fill:none;stroke:#0bd823;}.cls-1{stroke-linecap:round;stroke-linejoin:round;stroke-width:4px;}.cls-2{stroke-miterlimit:10;stroke-width:3px;}</style></defs><g id="Layer_2" data-name="Layer 2"><g id="Capa_1" data-name="Capa 1"><path class="cls-1" d="M111.26,18H137a11,11,0,0,1,11,11V140.37a11,11,0,0,1-11,11H13a11,11,0,0,1-11-11V29A11,11,0,0,1,13,18h7.59"/><line class="cls-1" x1="2" y1="45.45" x2="147.96" y2="45.45"/><line class="cls-1" x1="37.86" y1="18.03" x2="95.65" y2="18.03"/><rect class="cls-2" x="17.58" y="62.51" width="15.63" height="15.63" rx="1.93"/><rect class="cls-2" x="17.58" y="89.24" width="15.63" height="15.63" rx="1.93"/><rect class="cls-2" x="17.58" y="115.98" width="15.63" height="15.63" rx="1.93"/><rect class="cls-2" x="42.58" y="62.51" width="15.63" height="15.63" rx="1.93"/><rect class="cls-2" x="42.58" y="89.24" width="15.63" height="15.63" rx="1.93"/><rect class="cls-2" x="42.58" y="115.98" width="15.63" height="15.63" rx="1.93"/><rect class="cls-2" x="68.68" y="62.51" width="15.63" height="15.63" rx="1.93"/><rect class="cls-2" x="68.68" y="89.24" width="15.63" height="15.63" rx="1.93"/><rect class="cls-2" x="68.68" y="115.98" width="15.63" height="15.63" rx="1.93"/><rect class="cls-2" x="93.67" y="62.51" width="15.63" height="15.63" rx="1.93"/><rect class="cls-2" x="93.67" y="89.24" width="15.63" height="15.63" rx="1.93"/><rect class="cls-2" x="93.67" y="115.98" width="15.63" height="15.63" rx="1.93"/><rect class="cls-2" x="118.67" y="62.51" width="15.63" height="15.63" rx="1.93"/><rect class="cls-2" x="118.67" y="89.24" width="15.63" height="15.63" rx="1.93"/><rect class="cls-2" x="118.67" y="115.98" width="15.63" height="15.63" rx="1.93"/><path class="cls-1" d="M43.39,33.54a7.54,7.54,0,0,1-3.75,1c-5.93,0-10.75-7.29-10.75-16.28S33.71,2,39.64,2c4.37,0,8.12,3.94,9.81,9.59"/><path class="cls-1" d="M117.2,33.54a7.57,7.57,0,0,1-3.75,1c-5.94,0-10.75-7.29-10.75-16.28S107.51,2,113.45,2c4.36,0,8.12,3.94,9.8,9.59"/></g></g></svg>