<svg xmlns="http://www.w3.org/2000/svg" viewBox="0 0 172.04 162.64"><defs><style>.cls-1{fill:none;stroke:#0bd823;stroke-linecap:round;stroke-linejoin:round;stroke-width:4px;}</style></defs><g id="Layer_2" data-name="Layer 2"><g id="Capa_1" data-name="Capa 1"><path class="cls-1" d="M86.05,160.63C32.05,161.79,2,21.88,2,21.88S68.67,6.73,85.25,2L170,23.84S150,159.27,86.05,160.63Z"/><path class="cls-1" d="M121.55,73.8V60.08c0-15.68-12.71-29.26-28.39-29.26h-.94V25.31H79.82v5.51H78.5c-15,0-27.25,13.08-27.25,28.13V73.8H44.11V85.08h7.14L59.9,90h51.5l10.15-4.88h6.39V73.8Z"/><line class="cls-1" x1="71.12" y1="31.91" x2="71.12" y2="57.63"/><line class="cls-1" x1="100.72" y1="31.91" x2="100.72" y2="57.63"/><rect class="cls-1" x="79.82" y="25.31" width="12.4" height="32.33"/><line class="cls-1" x1="66.66" y1="77.56" x2="105.38" y2="77.56"/><line class="cls-1" x1="57.45" y1="116.28" x2="114.59" y2="116.28"/></g></g></svg>