<svg xmlns="http://www.w3.org/2000/svg" viewBox="0 0 142.26 132.91"><defs><style>.cls-1{fill:none;stroke:#0bd823;stroke-linecap:round;stroke-linejoin:round;stroke-width:4px;}</style></defs><g id="Layer_2" data-name="Layer 2"><g id="Capa_1" data-name="Capa 1"><rect class="cls-1" x="29.8" y="2" width="82.66" height="128.91"/><line class="cls-1" x1="2" y1="130.91" x2="140.26" y2="130.91"/><rect class="cls-1" x="57.35" y="110.24" width="27.55" height="20.66"/><line class="cls-1" x1="40.54" y1="21.19" x2="51.86" y2="21.19"/><line class="cls-1" x1="40.54" y1="36.93" x2="51.86" y2="36.93"/><line class="cls-1" x1="40.54" y1="52.68" x2="51.86" y2="52.68"/><line class="cls-1" x1="40.54" y1="68.42" x2="51.86" y2="68.42"/><line class="cls-1" x1="40.54" y1="83.92" x2="51.86" y2="83.92"/><line class="cls-1" x1="65.88" y1="21.19" x2="77.2" y2="21.19"/><line class="cls-1" x1="65.88" y1="36.93" x2="77.2" y2="36.93"/><line class="cls-1" x1="65.88" y1="52.68" x2="77.2" y2="52.68"/><line class="cls-1" x1="65.88" y1="68.42" x2="77.2" y2="68.42"/><line class="cls-1" x1="91.22" y1="21.19" x2="102.54" y2="21.19"/><line class="cls-1" x1="91.22" y1="36.93" x2="102.54" y2="36.93"/><line class="cls-1" x1="91.22" y1="52.68" x2="102.54" y2="52.68"/><line class="cls-1" x1="91.22" y1="68.42" x2="102.54" y2="68.42"/><line class="cls-1" x1="91.22" y1="83.92" x2="102.54" y2="83.92"/></g></g></svg>