<svg xmlns="http://www.w3.org/2000/svg" viewBox="0 0 157.25 142.23"><defs><style>.cls-1,.cls-2{fill:none;stroke:#0bd823;stroke-width:4px;}.cls-1{stroke-miterlimit:10;}.cls-2{stroke-linecap:round;stroke-linejoin:round;}</style></defs><g id="Layer_2" data-name="Layer 2"><g id="Capa_1" data-name="Capa 1"><rect class="cls-1" x="35.37" y="13.45" width="18.69" height="41.73" rx="8.08"/><path class="cls-1" d="M134.05,34.17a5.67,5.67,0,0,0-5.65-5.65H66.24v-5A21.58,21.58,0,0,0,44.72,2h0A21.58,21.58,0,0,0,23.2,23.52V45.11A21.58,21.58,0,0,0,44.72,66.62h0A21.58,21.58,0,0,0,66.24,45.11V39.82H97.1V50.69h10.43V39.82H118V50.69H128.4V39.82A5.67,5.67,0,0,0,134.05,34.17Z"/><path class="cls-2" d="M153.08,60.18a5.41,5.41,0,0,0-7.58.2l-42.9,42.9s-26.23.07-37.46.17a5.12,5.12,0,0,1-5.18-5L59.9,97a5.14,5.14,0,0,1,5.26-5.31c9.41.22,27.69.34,27.69.34a8.07,8.07,0,0,0,8-8h0a8.07,8.07,0,0,0-8-8H45.47a8,8,0,0,0-5.11,1.84L2,102.2l20.21,38,21.38-16,0-.38a3,3,0,0,0,1.25.31l59.12-6.09a7.3,7.3,0,0,0,4.43-1.5,3.82,3.82,0,0,0,1.91-1.07l42.81-44.84A7.41,7.41,0,0,0,153.08,60.18Z"/></g></g></svg>