<?xml version="1.0" encoding="UTF-8"?>
<svg id="Layer_2" data-name="Layer 2" xmlns="http://www.w3.org/2000/svg" viewBox="0 0 270 111.6">
  <defs>
    <style>
      .cls-1 {
        fill: #fff;
      }
    </style>
  </defs>
  <g id="Capa_1" data-name="Capa 1">
    <g>
      <g>
        <path class="cls-1" d="M138.35,36.64c0-.26,.21-.49,.47-.49h6.13c5,0,9.08,4.06,9.08,9.03s-4.09,9.08-9.08,9.08h-6.13c-.26,0-.47-.23-.47-.49v-17.13Zm6.29,14.47c3.36,0,5.82-2.38,5.82-5.93s-2.46-5.9-5.82-5.9h-2.95v11.83h2.95Z"/>
        <path class="cls-1" d="M161.96,42.05c3.11,0,5.49,2.3,5.49,5.54,0,.18-.03,.6-.05,.78-.03,.31-.31,.54-.57,.54h-7.66c.03,1.48,1.24,2.77,2.98,2.77,1.19,0,2.02-.44,2.56-.88,.28-.23,.6-.26,.78,0l1.01,1.35c.21,.23,.23,.52-.05,.78-1.04,.88-2.51,1.63-4.45,1.63-3.57,0-6.06-2.85-6.06-6.26s2.48-6.24,6.03-6.24Zm2.23,4.74c-.05-1.16-.98-2.07-2.3-2.07-1.45,0-2.38,.88-2.54,2.07h4.84Z"/>
        <path class="cls-1" d="M169.52,53.47c-.16-.1-.28-.39-.16-.65l.78-1.55c.13-.28,.41-.39,.7-.21,.54,.34,1.4,.78,2.64,.78,.91,0,1.32-.34,1.32-.85,0-.54-.67-1.04-2.25-1.66-2.3-.88-3.34-1.97-3.34-3.78s1.37-3.49,4.3-3.49c1.76,0,2.9,.47,3.55,.88,.26,.21,.41,.52,.26,.83l-.67,1.37c-.18,.28-.49,.34-.75,.23-.57-.26-1.4-.6-2.38-.6-.8,0-1.14,.39-1.14,.78,0,.54,.6,.83,1.71,1.29,2.3,.93,3.96,1.76,3.96,4.14,0,1.89-1.6,3.57-4.61,3.57-1.99,0-3.24-.62-3.91-1.09Z"/>
        <path class="cls-1" d="M184.5,46.71c1.22,0,2.3,.34,2.3,.34,.05-1.53-.39-2.25-1.66-2.25-1.09,0-2.67,.23-3.36,.44-.39,.13-.62-.16-.67-.52l-.26-1.35c-.1-.44,.13-.65,.39-.72,.26-.1,2.15-.6,4.09-.6,3.73,0,4.5,1.94,4.5,5.2v6.44c0,.31-.26,.57-.57,.57h-.88c-.21,0-.36-.08-.52-.41l-.34-.8c-.7,.67-1.89,1.5-3.75,1.5-2.38,0-4.04-1.53-4.04-4.09,0-2.12,1.73-3.75,4.76-3.75Zm.08,5.44c1.06,0,1.99-.83,2.15-1.27v-1.76s-.8-.36-1.76-.36c-1.37,0-2.12,.65-2.12,1.71s.62,1.68,1.73,1.68Z"/>
        <path class="cls-1" d="M193.05,42.88c0-.34,.28-.57,.57-.57h.96c.28,0,.41,.13,.52,.39l.44,1.16c.41-.6,1.53-1.81,3.36-1.81,1.42,0,2.59,.39,2.25,1.16l-.78,1.76c-.13,.28-.41,.39-.7,.26-.28-.13-.57-.23-1.11-.23-1.29,0-2.07,.83-2.28,1.24v7.45c0,.44-.28,.57-.67,.57h-1.99c-.28,0-.57-.26-.57-.57v-10.82Z"/>
        <path class="cls-1" d="M203.06,42.88c0-.34,.28-.57,.57-.57h.96c.28,0,.41,.13,.52,.39l.44,1.16c.41-.6,1.53-1.81,3.36-1.81,1.42,0,2.59,.39,2.25,1.16l-.78,1.76c-.13,.28-.41,.39-.7,.26-.28-.13-.57-.23-1.11-.23-1.29,0-2.07,.83-2.28,1.24v7.45c0,.44-.28,.57-.67,.57h-1.99c-.28,0-.57-.26-.57-.57v-10.82Z"/>
        <path class="cls-1" d="M218.15,42.05c3.39,0,6.13,2.85,6.13,6.21s-2.74,6.29-6.13,6.29-6.11-2.87-6.11-6.29,2.74-6.21,6.11-6.21Zm0,9.55c1.73,0,3.13-1.5,3.13-3.34s-1.4-3.26-3.13-3.26-3.11,1.45-3.11,3.26,1.37,3.34,3.11,3.34Z"/>
        <path class="cls-1" d="M226.88,36.72c0-.28,.28-.57,.57-.57h2.1c.28,0,.57,.28,.57,.57v16.98c0,.31-.28,.57-.57,.57h-2.1c-.28,0-.57-.26-.57-.57v-16.98Z"/>
        <path class="cls-1" d="M233.48,36.72c0-.28,.28-.57,.57-.57h2.1c.28,0,.57,.28,.57,.57v16.98c0,.31-.28,.57-.57,.57h-2.1c-.28,0-.57-.26-.57-.57v-16.98Z"/>
        <path class="cls-1" d="M245.43,42.05c3.39,0,6.13,2.85,6.13,6.21s-2.74,6.29-6.13,6.29-6.11-2.87-6.11-6.29,2.74-6.21,6.11-6.21Zm0,9.55c1.73,0,3.13-1.5,3.13-3.34s-1.4-3.26-3.13-3.26-3.11,1.45-3.11,3.26,1.37,3.34,3.11,3.34Z"/>
        <path class="cls-1" d="M138.35,57.48c0-.26,.23-.49,.49-.49h2.41c.26,0,.49,.23,.49,.49v17.13c0,.26-.23,.49-.49,.49h-2.41c-.26,0-.49-.23-.49-.49v-17.13Z"/>
        <path class="cls-1" d="M145.34,63.72c0-.34,.28-.57,.57-.57h.98c.28,0,.41,.13,.49,.36l.44,1.11c.44-.49,1.55-1.73,3.86-1.73,3.8,0,4.79,2.56,4.79,5.46v6.19c0,.31-.28,.57-.57,.57h-2.1c-.31,0-.57-.26-.57-.57v-6.19c0-1.55-.62-2.51-2.07-2.51-1.55,0-2.3,1.04-2.59,1.86v6.83c0,.44-.18,.57-.75,.57h-1.92c-.28,0-.57-.26-.57-.57v-10.82Z"/>
        <path class="cls-1" d="M159.66,63.72c0-.34,.28-.57,.57-.57h.93c.26,0,.44,.13,.49,.34l.44,1.14c.49-.57,1.55-1.73,3.65-1.73,1.73,0,2.59,.62,3.57,1.81,.52-.54,1.71-1.81,3.86-1.81,3.83,0,4.74,2.43,4.74,5.54v6.11c0,.31-.26,.57-.6,.57h-2.07c-.31,0-.57-.26-.57-.57v-6.19c0-1.55-.57-2.51-2.07-2.51-1.73,0-2.23,1.24-2.23,1.24,0,0,.05,.6,.05,1.14v6.32c0,.31-.28,.57-.57,.57h-2.12c-.34,0-.57-.26-.57-.57v-6.19c0-1.55-.44-2.51-1.97-2.51s-2.02,1.04-2.3,1.86v6.83c0,.31-.28,.57-.57,.57h-2.1c-.28,0-.57-.26-.57-.57v-10.82Z"/>
        <path class="cls-1" d="M186.47,62.89c3.39,0,6.13,2.85,6.13,6.21s-2.74,6.29-6.13,6.29-6.11-2.87-6.11-6.29,2.74-6.21,6.11-6.21Zm0,9.55c1.73,0,3.13-1.5,3.13-3.34s-1.4-3.26-3.13-3.26-3.11,1.45-3.11,3.26,1.37,3.34,3.11,3.34Z"/>
        <path class="cls-1" d="M195.17,57.56c0-.28,.28-.57,.57-.57h2.1c.31,0,.57,.28,.57,.57v5.85c.54-.23,1.73-.52,2.92-.52,3.55,0,5.8,2.74,5.8,6.24s-2.36,6.26-5.62,6.26c-2.61,0-3.99-1.79-3.99-1.79l-.28,.93c-.13,.34-.31,.57-.6,.57h-.91c-.28,0-.57-.26-.57-.57v-16.98Zm5.88,14.88c1.86,0,2.82-1.63,2.82-3.31s-1.01-3.29-2.98-3.29c-1.5,0-2.48,.67-2.48,.67v4.27c.26,.67,1.09,1.66,2.64,1.66Z"/>
        <path class="cls-1" d="M209.28,59.04c0-1.14,.88-2.04,2.04-2.04s2.07,.91,2.07,2.04-.91,2.07-2.07,2.07-2.04-.93-2.04-2.07Zm.47,4.68c0-.34,.28-.57,.57-.57h2.1c.28,0,.57,.23,.57,.57v10.82c0,.31-.28,.57-.57,.57h-2.1c-.28,0-.57-.26-.57-.57v-10.82Z"/>
        <path class="cls-1" d="M216.32,57.56c0-.28,.28-.57,.57-.57h2.1c.28,0,.57,.28,.57,.57v16.98c0,.31-.28,.57-.57,.57h-2.1c-.28,0-.57-.26-.57-.57v-16.98Z"/>
        <path class="cls-1" d="M222.42,59.04c0-1.14,.88-2.04,2.04-2.04s2.07,.91,2.07,2.04-.91,2.07-2.07,2.07-2.04-.93-2.04-2.07Zm.47,4.68c0-.34,.28-.57,.57-.57h2.1c.28,0,.57,.23,.57,.57v10.82c0,.31-.28,.57-.57,.57h-2.1c-.28,0-.57-.26-.57-.57v-10.82Z"/>
        <path class="cls-1" d="M233.37,67.55c1.22,0,2.3,.34,2.3,.34,.05-1.53-.39-2.25-1.66-2.25-1.09,0-2.67,.23-3.36,.44-.39,.13-.62-.16-.67-.52l-.26-1.35c-.1-.44,.13-.65,.39-.72,.26-.1,2.15-.6,4.09-.6,3.73,0,4.5,1.94,4.5,5.2v6.44c0,.31-.26,.57-.57,.57h-.88c-.21,0-.36-.08-.52-.41l-.34-.8c-.7,.67-1.89,1.5-3.75,1.5-2.38,0-4.04-1.53-4.04-4.09,0-2.12,1.73-3.75,4.76-3.75Zm.08,5.44c1.06,0,1.99-.83,2.15-1.27v-1.76s-.8-.36-1.76-.36c-1.37,0-2.12,.65-2.12,1.71s.62,1.68,1.73,1.68Z"/>
        <path class="cls-1" d="M241.91,63.72c0-.34,.28-.57,.57-.57h.96c.28,0,.41,.13,.52,.39l.44,1.16c.41-.6,1.53-1.81,3.36-1.81,1.42,0,2.59,.39,2.25,1.16l-.78,1.76c-.13,.28-.41,.39-.7,.26-.28-.13-.57-.23-1.11-.23-1.29,0-2.07,.83-2.28,1.24v7.45c0,.44-.28,.57-.67,.57h-1.99c-.28,0-.57-.26-.57-.57v-10.82Z"/>
        <path class="cls-1" d="M251.47,59.04c0-1.14,.88-2.04,2.04-2.04s2.07,.91,2.07,2.04-.91,2.07-2.07,2.07-2.04-.93-2.04-2.07Zm.47,4.68c0-.34,.28-.57,.57-.57h2.1c.28,0,.57,.23,.57,.57v10.82c0,.31-.28,.57-.57,.57h-2.1c-.28,0-.57-.26-.57-.57v-10.82Z"/>
        <path class="cls-1" d="M263.86,62.89c3.39,0,6.13,2.85,6.13,6.21s-2.74,6.29-6.13,6.29-6.11-2.87-6.11-6.29,2.74-6.21,6.11-6.21Zm0,9.55c1.73,0,3.13-1.5,3.13-3.34s-1.4-3.26-3.13-3.26-3.11,1.45-3.11,3.26,1.37,3.34,3.11,3.34Z"/>
      </g>
      <path class="cls-1" d="M124.44,27.78c-.92,0-1.67,.75-1.67,1.67v52.64c0,.92,.75,1.67,1.67,1.67s1.67-.75,1.67-1.67V29.45c0-.92-.75-1.67-1.67-1.67Z"/>
      <g>
        <polygon class="cls-1" points="84.53 52.05 81.15 59.63 88.07 59.63 84.63 52.05 84.53 52.05"/>
        <polygon class="cls-1" points="44.28 52.05 40.9 59.63 47.82 59.63 44.38 52.05 44.28 52.05"/>
        <path class="cls-1" d="M24.18,57.66h-4.24v6.13h4.24c1.72,0,3.03-1.34,3.03-3.13s-1.31-3-3.03-3Z"/>
        <path class="cls-1" d="M26.6,50.77c0-1.72-1.14-2.93-2.89-2.93h-3.75v6.03h3.75c1.76,0,2.89-1.38,2.89-3.1Z"/>
        <path class="cls-1" d="M55.8,0C24.98,0,0,24.98,0,55.8s24.98,55.8,55.8,55.8,55.8-24.98,55.8-55.8S86.62,0,55.8,0ZM24.49,67.86h-8.33c-.38,0-.65-.31-.65-.65v-22.8c0-.34,.28-.65,.65-.65h7.89c4.1,0,7.27,2.76,7.27,6.37,0,2.58-1.65,4.48-3.44,5.37v.17c2,.69,4.13,2.31,4.13,5.55,0,3.86-3.31,6.65-7.51,6.65Zm30.7,0h-3c-.52,0-.76-.21-1-.69l-1.69-3.72h-10.3l-1.69,3.72c-.14,.34-.45,.69-1,.69h-3c-.52,0-.79-.45-.59-.9l10.71-23.18c.1-.21,.28-.38,.59-.38h.34c.34,0,.48,.17,.59,.38l10.61,23.18c.21,.45-.07,.9-.59,.9Zm9.52,.34c-4.34,0-6.58-1.83-7.58-2.69-.34-.28-.48-.48-.17-1.03l1.24-2.14c.28-.48,.86-.48,1.17-.24,1.41,1.07,2.96,2.14,5.2,2.14,1.79,0,3.13-1.17,3.13-2.65,0-1.76-1.48-2.96-4.37-4.13-3.24-1.31-6.47-3.37-6.47-7.44,0-3.07,2.27-6.61,7.75-6.61,3.51,0,6.2,1.79,6.89,2.31,.34,.21,.45,.79,.21,1.14l-1.31,1.96c-.28,.41-.79,.69-1.21,.41-1.48-.93-2.89-1.89-4.79-1.89s-3.03,1.1-3.03,2.41c0,1.62,1.27,2.72,4.06,3.86,3.34,1.34,7.2,3.34,7.2,7.78,0,3.55-3.07,6.82-7.92,6.82Zm30.73-.34h-3c-.52,0-.76-.21-1-.69l-1.69-3.72h-10.3l-1.69,3.72c-.14,.34-.45,.69-1,.69h-3c-.52,0-.79-.45-.59-.9l10.71-23.18c.1-.21,.28-.38,.59-.38h.34c.34,0,.48,.17,.59,.38l10.61,23.18c.21,.45-.07,.9-.59,.9Z"/>
      </g>
    </g>
  </g>
</svg>