<?xml version="1.0" encoding="UTF-8"?>
<svg id="Layer_2" data-name="Layer 2" xmlns="http://www.w3.org/2000/svg" viewBox="0 0 320 320">
  <defs>
    <style>
      .cls-1 {
        fill: #fff;
      }

      .cls-2 {
        fill: #00a84f;
      }
    </style>
  </defs>
  <g id="Layer_1-2" data-name="Layer 1">
    <g>
      <path class="cls-2" d="m160.7,19.3c-76.96,0-139.35,62.39-139.35,139.35,0,24.72,6.45,47.94,17.74,68.07l-13.78,68.01,61.22-18.1c21.48,13.53,46.91,21.37,74.17,21.37,76.96,0,139.35-62.39,139.35-139.35S237.66,19.3,160.7,19.3Z"/>
      <g>
        <path class="cls-1" d="m232.3,191.5c-4-2-23.5-11.6-27.1-12.9-3.6-1.3-6.3-2-8.9,2-2.6,3.9-10.2,12.9-12.5,15.5-2.3,2.7-4.6,3-8.6,1-23.3-11.7-38.6-20.8-53.9-47.1-4.1-7,4-6.4,11.6-21.6,1.4-2.6.7-4.9-.3-6.9s-8.9-21.5-12.2-29.4c-3.2-7.7-6.5-6.7-8.9-6.8-2.3-.1-5-.1-7.6-.1s-7,1-10.6,5c-3.7,4-13.9,13.6-13.9,33.1s14.2,38.4,16.2,41,28,42.6,67.7,59.8c25.1,10.8,34.9,11.8,47.5,9.9,7.6-1.1,23.4-9.5,26.7-18.8,3.3-9.2,3.3-17.2,2.4-19.1-1-1.6-3.6-2.6-7.6-4.6Z"/>
        <path class="cls-1" d="m320,158.7c0-42.4-18-82.2-47.9-112.2C242.1,16.5,202.3,0,159.9,0,72.5,0,1.4,71.1,1.3,158.5c0,28,7.3,55.3,21.2,79.3L0,320l84.1-22.1c23.1,12.6,49.2,19.3,75.8,19.3,87.4,0,160.1-71.1,160.1-158.5Zm-160,131.8h-.1c-23.7,0-46.9-6.4-67.1-18.4l-4.8-2.9-49.9,13.1,13.3-48.6-3.1-5c-13.2-20.9-20.2-45.2-20.2-70.1.1-72.7,59.2-131.8,131.9-131.8,35.2,0,68.2,13.7,93.2,38.7s40.1,58,40.1,93.2c0,72.7-60.7,131.8-133.3,131.8Z"/>
      </g>
    </g>
  </g>
</svg>